<?xml version="1.0" encoding="UTF-8" standalone="no"?>
<!-- Created with Inkscape (http://www.inkscape.org/) -->

<svg
   width="10mm"
   height="10mm"
   viewBox="0 0 10 10"
   version="1.1"
   id="svg5"
   xmlns="http://www.w3.org/2000/svg"
   xmlns:svg="http://www.w3.org/2000/svg">
  <defs
     id="defs2" />
  <g
     id="layer1"
     transform="translate(-70.175951,-55.09797)">
    <path
       style="fill:none;fill-rule:evenodd;stroke:#000000;stroke-width:0.576;stroke-linecap:round;stroke-linejoin:miter;stroke-miterlimit:4;stroke-dasharray:none;stroke-opacity:1"
       id="path1295"
       d="M 302.33482,245.7366 C 302.20063,245.87909 302.0321,245.65477 302.02142,245.53059 301.99432,245.2154 302.33472,245.02427 302.61224,245.05502 303.07685,245.1065 303.33394,245.60077 303.24998,246.03064 303.13033,246.64328 302.46997,246.97119 301.88956,246.83055 301.12874,246.64621 300.72865,245.81566 300.92747,245.08532 301.17497,244.17612 302.17755,243.70328 303.0575,243.96106 304.11523,244.27092 304.66114,245.44651 304.34394,246.4759 303.97221,247.68226 302.62301,248.30143 301.44429,247.92451 300.08923,247.4912 299.39667,245.96804 299.83351,244.64006 300.32819,243.13625 302.02558,242.37021 303.50277,242.8671 305.15537,243.42301 305.99496,245.29482 305.4379,246.92116 304.82087,248.7226 302.77451,249.63577 300.99903,249.01847 299.04875,248.3404 298.06195,246.11939 298.73955,244.1948 299.4786,242.09565 301.87434,241.0352 303.94803,241.77314 306.19605,242.57313 307.33019,245.14366 306.53185,247.36643 305.67098,249.76334 302.9256,250.97118 300.55376,250.11243 298.00795,249.19069 296.7264,246.27043 297.64559,243.74953 298.62817,241.0548 301.72335,239.69953 304.39329,240.67919 307.23694,241.72258 308.66595,244.9927 307.62581,247.81169 306.52163,250.80426 303.07653,252.30702 300.1085,251.20638 296.967,250.04142 295.39049,246.42132 296.55164,243.30427 297.77737,240.01383 301.57248,238.36356 304.83856,239.58523 308.27793,240.87172 310.00197,244.84185 308.71977,248.25696 307.37254,251.84527 303.22736,253.64308 299.66324,252.30034 295.92598,250.89237 294.05439,246.57214 295.45768,242.859 296.92637,238.9728 301.42167,237.02743 305.28382,238.49127 309.31897,240.02069 311.33813,244.69106 309.81373,248.70222 308.22359,252.88632 303.37814,254.97927 299.21797,253.3943 294.88492,251.74346 292.71817,246.72292 294.36372,242.41374 296.07527,237.93173 301.27091,235.69119 305.72909,237.39731 310.36005,239.16956 312.67439,244.5403 310.90768,249.14748 309.07474,253.92741 303.52889,256.31554 298.77271,254.48826 293.84383,252.59462 291.38189,246.87366 293.26976,241.96848 295.22409,236.89063 301.12017,234.3549 306.17435,236.30336 311.40115,238.31837 314.0107,244.38957 312.00164,249.59275 309.92595,254.96851 303.67962,257.65186 298.32744,255.58221 292.80272,253.44584 290.04556,247.02438 292.17581,241.52321 294.37286,235.84952 300.96945,233.01855 306.61961,235.2094 312.44227,237.46713 315.34705,244.23885 313.0956,250.03801 310.7772,256.00963 303.83033,258.98822 297.88218,256.67617 291.76159,254.2971 288.70919,247.17509 291.08185,241.07795 293.52159,234.80839 300.81874,231.68218 307.06488,234.11544 313.4834,236.61586 316.68343,244.08815 314.18956,250.48328 311.62847,257.05076 303.98104,260.32461 297.43692,257.77013 290.72046,255.14838 287.3728,247.32579 289.98789,240.63268 292.6703,233.76726 300.66804,230.34578 307.51014,233.02148 314.52453,235.76456 318.01983,243.93745 315.28351,250.92854 312.47977,258.0919 304.13173,261.66101 296.99165,258.86409 289.67932,255.99968 286.03639,247.47648 288.89393,240.18742 291.819,232.72612 300.51735,229.00937 307.95541,231.92753 315.56568,234.91325 319.35624,243.78676 316.37747,251.3738 313.33109,259.13305 304.28242,262.99743 296.54639,259.95804 288.63817,256.851 284.69997,247.62717 287.79998,239.74216 290.96767,231.68497 300.36667,227.67294 308.40067,230.83357 316.60683,234.06192 320.69267,243.63608 317.47143,251.81907 314.18242,260.1742 304.4331,264.33387 296.10113,261.052 287.59702,257.70234 283.36353,247.77785 286.70602,239.29689 290.11634,230.64382 300.21599,226.3365 308.84593,229.73961 317.64798,233.21059 322.02912,243.4854 318.56539,252.26433 315.03376,261.21535 304.58378,265.67031 295.65586,262.14596 286.55587,258.55368 282.02709,247.92853 285.61206,238.85163 289.26499,229.60266 300.06531,225.00006 309.2912,228.64565 318.68913,232.35924 323.36556,243.33473 319.65934,252.7096 315.88511,262.25651 304.73445,267.00676 295.2106,263.23992 285.51471,259.40503 280.69063,248.0792 284.5181,238.40636 288.41364,228.56151 299.91464,223.6636 309.73646,227.5517 319.73029,231.50788 324.70202,243.18406 320.7533,253.15486 316.73646,263.29767 304.88512,268.34322 294.76533,264.33387 284.47355,260.25639 279.35417,248.22987 283.42415,237.9611 287.56228,227.52035 299.76397,222.32714 310.18172,226.45774 320.77145,230.65652 326.03848,243.03339 321.84726,253.60012 317.58783,264.33883 305.03579,269.67968 294.32007,265.42783 283.43239,261.10775 278.01771,248.38054 282.33019,237.51584 286.71092,226.47918 299.6133,220.99068 310.62699,225.36378 321.81262,229.80516 327.37495,242.88272 322.94122,254.04539 318.43919,265.37999 305.18646,271.01615 293.87481,266.52179 282.39123,261.95912 276.68124,248.53121 281.23623,237.07057 285.85955,225.43802 299.46264,219.65421 311.07225,224.26983 322.85378,228.95379 328.71142,242.73205 324.03517,254.49065 319.29056,266.42115 305.33712,272.35262 293.42954,267.61575 281.35006,262.81049 275.34477,248.68187 280.14227,236.62531 285.00818,224.39686 299.31197,218.31773 311.51752,223.17587 323.89494,228.10242 330.0479,242.58139 325.12913,254.93592 320.14194,267.46232 305.48779,273.6891 292.98428,268.7097 280.3089,263.66186 274.00829,248.83254 279.04832,236.18004 284.1568,223.35569 299.16131,216.98126 311.96278,222.08191 324.93611,227.25104 331.38437,242.43073 326.22309,255.38118 320.99331,268.50349 305.63845,275.02558 292.53901,269.80366 279.26773,264.51324 272.67181,248.9832 277.95436,235.73478 283.30542,222.31452 299.01065,215.64478 312.40804,220.98795 325.97728,226.39966 332.72085,242.28006 327.31705,255.82644 321.84469,269.54465 305.78911,276.36206 292.09375,270.89762 278.22656,265.36462 271.33533,249.13386 276.8604,235.28952 282.45404,221.27335 298.85998,214.3083 312.85331,219.894 327.01845,225.54828 334.05733,242.1294 328.411,256.27171 322.69608,270.58582 305.93977,277.69854 291.64849,271.99158 277.18539,266.21601 269.99885,249.28452 275.76644,234.84425 281.60266,220.23219 298.70932,212.97181 313.29857,218.80004 328.05962,224.69689 335.39382,241.97874 329.50496,256.71697 323.54746,271.62699 306.09043,279.03502 291.20322,273.08553 276.14422,267.06739 268.66236,249.43518 274.67249,234.39899 280.75127,219.19102 298.55867,211.63533 313.74384,217.70608 329.10079,223.84551 336.73031,241.82808 330.59892,257.16224 324.39885,272.66816 306.24109,280.37151 290.75796,274.17949 275.10305,267.91878 267.32588,249.58584 273.57853,233.95373 279.89989,218.14985 298.40801,210.29884 314.1891,216.61212 330.14196,222.99412 338.06679,241.67742 331.69288,257.6075 325.25024,273.70933 306.39175,281.708 290.31269,275.27345 274.06188,268.77017 265.98939,249.7365 272.48457,233.50846 279.0485,217.10867 298.25735,208.96235 314.63436,215.51817 331.18313,222.14273 339.40328,241.52677 332.78683,258.05276 326.10162,274.7505 306.54241,283.04449 289.86743,276.36741 273.02071,269.62156 264.6529,249.88715 271.39061,233.0632 278.19711,216.0675 298.10669,207.62586 315.07963,214.42421 332.2243,221.29134 340.73977,241.37611 333.88079,258.49803 326.95301,275.79168 306.69306,284.38098 289.42217,277.46136 271.97954,270.47295 263.31641,250.03781 270.29666,232.61793 277.34572,215.02633 297.95603,206.28937 315.52489,213.33025 333.26547,220.43995 342.07626,241.22545 334.97475,258.94329 327.80441,276.83285 306.84372,285.71747 288.9769,278.55532 270.93837,271.32434 261.97992,250.18847 269.2027,232.17267 276.49432,213.98516 297.80538,204.95288 315.97016,212.23629 334.30664,219.58856 343.41276,241.0748 336.06871,259.38855 328.6558,277.87402 306.99438,287.05396 288.53164,279.64928 269.8972,272.17573 260.64342,250.33913 268.10874,231.72741 275.64293,212.94399 297.65472,203.61638 316.41542,211.14234 335.34782,218.73716 344.74925,240.92414 337.16266,259.83382 331.51493,273.91087 317.52262,283.38915 302.36226,283.46457"
       transform="matrix(0.26458333,0,0,0.26458333,-9.816802,-9.919837)" />
  </g>
</svg>
